<?xml version="1.0" encoding="iso-8859-1"?>
<!-- Generator: Adobe Illustrator 19.0.0, SVG Export Plug-In . SVG Version: 6.00 Build 0)  -->
<svg version="1.1" id="Layer_1" xmlns="http://www.w3.org/2000/svg" xmlns:xlink="http://www.w3.org/1999/xlink" x="0px" y="0px"
	 viewBox="0 0 299.787 299.787" style="enable-background:new 0 0 299.787 299.787;" xml:space="preserve">
<g>
	<g>
		<g>
			<path d="M173.274,44.058C185.903,25.454,172.555,0,149.894,0c-22.667,0-36.006,25.457-23.38,44.058
				c-59.968,11.03-105.55,63.689-105.55,126.799c0,71.092,57.837,128.929,128.93,128.929s128.93-57.837,128.93-128.929
				C278.823,107.748,233.243,55.088,173.274,44.058z M149.894,14.55c7.548,0,13.689,6.141,13.689,13.689
				c0,7.548-6.141,13.689-13.689,13.689c-7.548,0.001-13.689-6.14-13.689-13.689C136.205,20.691,142.346,14.55,149.894,14.55z
				 M149.894,285.237c-63.068,0-114.379-51.31-114.379-114.379c0-63.069,51.311-114.38,114.379-114.38s114.38,51.31,114.38,114.38
				C264.273,233.927,212.963,285.237,149.894,285.237z"/>
			<path d="M149.894,77.56c-51.444,0-93.297,41.853-93.297,93.298c0,51.445,41.853,93.297,93.297,93.297
				c51.445,0,93.298-41.853,93.298-93.297C243.191,119.413,201.338,77.56,149.894,77.56z M149.894,249.604
				c-43.422,0-78.748-35.325-78.748-78.747s35.325-78.748,78.748-78.748s78.747,35.325,78.747,78.748
				S193.316,249.604,149.894,249.604z"/>
			<path d="M174.5,141.042l-70.819,35.597c-3.483,1.751-2.499,6.968,1.383,7.33l25.813,2.402c1.859,0.173,3.331,1.645,3.504,3.504
				l2.401,25.813c0.361,3.882,5.579,4.867,7.33,1.383l35.597-70.819C181.388,142.912,177.839,139.364,174.5,141.042z"/>
		</g>
	</g>
</g>
<g>
</g>
<g>
</g>
<g>
</g>
<g>
</g>
<g>
</g>
<g>
</g>
<g>
</g>
<g>
</g>
<g>
</g>
<g>
</g>
<g>
</g>
<g>
</g>
<g>
</g>
<g>
</g>
<g>
</g>
</svg>
